<svg id="SvgjsSvg1006" width="288" height="288" xmlns="http://www.w3.org/2000/svg" version="1.1" xmlns:xlink="http://www.w3.org/1999/xlink" xmlns:svgjs="http://svgjs.com/svgjs"><defs id="SvgjsDefs1007"></defs><g id="SvgjsG1008" transform="matrix(1,0,0,1,0,0)"><svg xmlns="http://www.w3.org/2000/svg" enable-background="new 0 0 1000 1000" viewBox="0 0 1000 1000" width="288" height="288"><path d="M835.2,436.5c-10.7-0.7-19.9-1.4-24.4-2.7c-32.1-9.1-146.5-14.6-158.8-15.1c-19.7-5.5-36.8-17.7-56.7-31.8c-40-28.5-89.8-63.9-189.9-66l-6.9-0.1c-48.4,0-102.3,10.1-153.3,23.9c-22.5-8.6-59.6-21.8-80.4-23.8c-10.5-1-15.8,4.1-18,7.3c-7.6,11-2.3,31.5,3.4,46.7c-60.6,22-104.5,42.7-108.4,44.5l-2.3,1.6c-11.1,11.4-6.2,27.8-2.3,41c1.2,4.1,2.4,8.1,3.1,11.9c1.4,7.6-15.2,12.5-15.4,12.6l-11.4,3l15.1,20.3l-12.6,17.7l13.9,17.9c-8.8,1.7-17.3,5.4-19.6,13.4c-3.1,10.9,6,22,30.6,37.2c12.2,7.6,25.1,12.1,39.5,14.3c-0.5-2.6-0.9-5.3-1.2-8.1c-0.3-2.7-0.5-5.5-0.6-8.4c-0.1-1.5-0.2-2.9-0.2-4.4c0-58.3,47.4-105.7,105.7-105.7c58.3,0,105.7,47.4,105.7,105.7c0,8.6-1.2,17-3.1,25c-0.6,2.6-1.3,5.2-2.2,7.8c-0.8,2.5-1.7,4.9-2.7,7.3c50.2,13.5,110.7,16.9,156.9,16.9c32.5,0,54.6-1.6,55-1.6h270.4c-1.8-2.5-3.4-5.2-4.9-7.9c-1.5-2.6-2.8-5.2-4-7.9c-6-13-9.4-27.4-9.4-42.7c0-56.8,46.3-103.1,103.1-103.1c56.9,0,103.1,46.3,103.1,103.1c0,13-2.5,25.5-7,37c-1.3,3.4-2.8,6.6-4.4,9.8c-1.7,3.3-3.5,6.6-5.6,9.7c36.9-7.3,47.7-31.8,48.6-34.1c11.6-51.8,6.8-92.5-14.4-120.9C936.5,443.5,873.1,439.1,835.2,436.5z" fill="#ffffff" class="color000 svgShape"></path><path d="M97.3 611.5c9.9 38.9 45 67.7 87 67.7 36.9 0 68.6-22.3 82.5-54.2 1-2.4 1.9-4.8 2.8-7.3.8-2.5 1.6-5.1 2.2-7.8 1.6-6.6 2.5-13.5 2.5-20.6 0-49.6-40.2-89.8-89.8-89.8-49.6 0-89.8 40.2-89.8 89.8 0 2.1.2 4.1.3 6.2.2 2.7.5 5.4.9 8C96.1 606.3 96.6 608.9 97.3 611.5zM849 673.4c25.7 0 48.7-11.1 64.6-28.8 2.4-2.7 4.7-5.5 6.8-8.4 1.9-2.6 3.6-5.4 5.2-8.2 6.8-12.4 10.7-26.7 10.7-41.8 0-48.2-39.1-87.3-87.3-87.3-48.2 0-87.3 39.1-87.3 87.3 0 15.5 4.1 30.1 11.2 42.7 1.5 2.7 3.2 5.4 5 7.9 2 2.8 4.1 5.4 6.4 7.9C800.4 662.3 823.4 673.4 849 673.4z" fill="#ffffff" class="color000 svgShape"></path></svg></g></svg>