<svg xmlns="http://www.w3.org/2000/svg" height="1066.667" width="1333.333" xml:space="preserve"><path style="fill:#211c1d;fill-opacity:1;fill-rule:nonzero;stroke:none" d="M10000 0H0v8000h10000V0" transform="matrix(.13333 0 0 -.13333 0 1066.667)"/><path style="fill:#fff;fill-opacity:1;fill-rule:nonzero;stroke:none" d="M3590 3435s481.39 308.33 828.61-14.58c123.94-115.27 191.39-278.96 191.39-448.21V2610l2580 220s-40 688.64 560 834.32c0 0-640-4.32-750-734.32l-2190-140v205.91c0 127.37-55.77 241.81-112.24 355.98C4580 3590 4120 3915 3590 3435" transform="matrix(.13333 0 0 -.13333 0 1066.667)"/><path style="fill:#fff;fill-opacity:1;fill-rule:nonzero;stroke:none" d="M4535.16 2844.45c0-331.52-241.75-600.27-539.97-600.27s-539.98 268.75-539.98 600.27 241.76 600.27 539.98 600.27 539.97-268.75 539.97-600.27M8193.9 3011.4c0-272.54-198.74-493.47-443.9-493.47-245.16 0-443.9 220.93-443.9 493.47 0 272.53 198.74 493.47 443.9 493.47 245.16 0 443.9-220.94 443.9-493.47" transform="matrix(.13333 0 0 -.13333 0 1066.667)"/><path style="fill:#fff;fill-opacity:1;fill-rule:nonzero;stroke:none" d="M8660 3440c-30 130-60 390-60 450 0 40.53-54.77 149.52-90.3 215.97-17.4 32.55-49.12 55.25-85.7 60.15-501.28 67.18-1043.49 463.55-1514 603.88-1140 340-1746.67 200.6-2270 0-510.88-195.82-990-600-990-600s440.06 196.14 806.67 373.33C4856.67 4736.67 5570 4690 5570 4690s-310-450-570-550-1022.53-2.42-2276.67-83.33C1483.33 3976.67 1550 3320 1550 3320c120 300 420.32 490.6 760 550 339.68 59.4 1600 61.63 2133.33 43.33 1502-51.51 2516.62 71.18 2843.06 118.78-545.1-59.53-2106.82 12.37-2106.82 12.37 706.54 750 818.2 681.98 1190.43 605.52 447.08-91.83 640-150 940-250s400-400 400-400c-1070-290-3650-204.69-3650-204.69C6540 3380.62 8240 3980 8370 3910s130-440 80-650c-24.9-104.58-119.24-236.42-207.68-342.45-6.43-39.55-16.76-77.58-30.69-113.51L8510 2960s180 350 150 480" transform="matrix(.13333 0 0 -.13333 0 1066.667)"/></svg>